<svg xmlns="http://www.w3.org/2000/svg" width="133" height="36" fill="none"><path fill="#fff" d="M20.942 16.385c-.035-3.893 3.189-5.786 3.336-5.874-1.825-2.66-4.655-3.024-5.649-3.053-2.376-.25-4.681 1.421-5.891 1.421-1.235 0-3.099-1.397-5.108-1.356-2.585.04-5.004 1.536-6.33 3.86-2.737 4.738-.696 11.7 1.927 15.53 1.312 1.876 2.845 3.97 4.851 3.896 1.963-.08 2.697-1.25 5.066-1.25 2.347 0 3.035 1.25 5.082 1.203 2.106-.033 3.433-1.884 4.699-3.777 1.516-2.148 2.125-4.267 2.149-4.375-.048-.017-4.09-1.56-4.132-6.225zM17.078 4.938c1.056-1.32 1.778-3.116 1.577-4.938-1.528.068-3.439 1.057-4.54 2.348-.973 1.137-1.843 3.002-1.618 4.756 1.717.128 3.48-.866 4.58-2.166zm32.297 25.601h-2.743l-1.503-4.721h-5.224l-1.431 4.72h-2.671l5.176-16.072h3.197l5.199 16.073zm-4.7-6.702-1.358-4.197c-.144-.428-.415-1.438-.81-3.027h-.05c-.159.683-.414 1.693-.763 3.027l-1.336 4.197h4.318zm17.986.765c0 1.97-.535 3.528-1.607 4.672-.959 1.018-2.151 1.527-3.573 1.527-1.536 0-2.64-.547-3.31-1.644v6.08h-2.576V22.76c0-1.238-.032-2.508-.095-3.81h2.265l.144 1.837h.048c.859-1.384 2.162-2.076 3.912-2.076 1.367 0 2.509.54 3.422 1.621.912 1.083 1.37 2.506 1.37 4.27zm-2.624.094c0-1.128-.254-2.058-.764-2.791-.556-.762-1.304-1.144-2.242-1.144-.635 0-1.212.213-1.728.632a2.93 2.93 0 0 0-1.014 1.658c-.07.256-.11.519-.12.784v1.933c0 .842.26 1.553.776 2.135.517.58 1.189.871 2.015.871.97 0 1.725-.376 2.265-1.12.541-.748.812-1.734.812-2.958zm15.957-.095c0 1.972-.535 3.53-1.607 4.673-.96 1.018-2.151 1.527-3.574 1.527-1.536 0-2.64-.547-3.31-1.644v6.08h-2.576V22.76c0-1.238-.033-2.508-.095-3.81h2.265l.143 1.837h.049c.858-1.384 2.16-2.076 3.911-2.076 1.367 0 2.508.54 3.424 1.621.91 1.083 1.37 2.506 1.37 4.27zm-2.625.095c0-1.128-.255-2.058-.765-2.791-.557-.762-1.302-1.144-2.24-1.144-.635 0-1.213.213-1.73.632-.518.422-.855.974-1.013 1.658-.079.319-.12.578-.12.784v1.933c0 .842.259 1.553.773 2.135.517.579 1.19.871 2.018.871.971 0 1.726-.376 2.265-1.12.541-.748.812-1.734.812-2.958zM90.9 26.03c0 1.369-.478 2.48-1.43 3.34-1.045.937-2.506 1.406-4.378 1.406-1.73 0-3.117-.333-4.163-1l.595-2.147c1.13.67 2.37 1.003 3.721 1.003.971 0 1.726-.22 2.265-.656.54-.437.813-1.022.813-1.751 0-.654-.226-1.2-.67-1.646-.445-.445-1.182-.86-2.217-1.24-2.815-1.049-4.223-2.584-4.223-4.603 0-1.32.497-2.399 1.49-3.243.993-.843 2.31-1.264 3.948-1.264 1.463 0 2.682.254 3.65.763l-.647 2.099c-.91-.493-1.939-.74-3.088-.74-.909 0-1.622.224-2.131.669-.43.397-.647.881-.647 1.456 0 .634.248 1.16.74 1.574.428.38 1.209.794 2.337 1.239 1.384.558 2.402 1.207 3.053 1.954.656.746.982 1.677.982 2.787zm8.537-5.148h-2.839v5.627c0 1.43.5 2.144 1.503 2.144.46 0 .842-.038 1.144-.12l.071 1.956c-.507.19-1.175.285-2.003.285-1.017 0-1.812-.31-2.386-.931-.571-.62-.858-1.66-.858-3.124v-5.842h-1.692v-1.932h1.692v-2.122l2.53-.764v2.886h2.838v1.937zm12.783 3.767c0 1.781-.509 3.243-1.527 4.387-1.064 1.178-2.48 1.765-4.245 1.765-1.703 0-3.057-.564-4.067-1.691-1.01-1.13-1.515-2.552-1.515-4.268 0-1.796.522-3.267 1.562-4.41 1.043-1.146 2.446-1.718 4.211-1.718 1.701 0 3.067.565 4.101 1.693.989 1.094 1.48 2.507 1.48 4.242zm-2.669.059c0-1.062-.23-1.972-.69-2.734-.54-.92-1.313-1.38-2.315-1.38-1.031 0-1.823.46-2.361 1.38-.462.762-.691 1.688-.691 2.782 0 1.063.229 1.976.691 2.736.556.92 1.333 1.38 2.339 1.38.985 0 1.757-.47 2.315-1.403.474-.78.712-1.697.712-2.761zm11.045-3.494a4.487 4.487 0 0 0-.812-.071c-.906 0-1.607.34-2.1 1.026-.427.604-.642 1.367-.642 2.289v6.08h-2.576V22.6a82.193 82.193 0 0 0-.075-3.648h2.243l.095 2.217h.071c.273-.762.701-1.377 1.288-1.837a3.113 3.113 0 0 1 1.861-.62c.238 0 .453.016.644.046l.003 2.457zm11.518 2.982c.007.391-.025.782-.094 1.168h-7.727c.029 1.145.404 2.021 1.121 2.625.652.539 1.494.81 2.528.81 1.144 0 2.187-.182 3.126-.548l.403 1.786c-1.096.479-2.391.717-3.886.717-1.797 0-3.208-.53-4.235-1.585-1.025-1.057-1.538-2.477-1.538-4.256 0-1.746.477-3.201 1.433-4.362 1-1.24 2.352-1.859 4.053-1.859 1.67 0 2.935.62 3.794 1.859.68.982 1.022 2.2 1.022 3.645zm-2.456-.668c.018-.765-.151-1.423-.5-1.98-.446-.717-1.132-1.074-2.051-1.074-.842 0-1.528.349-2.05 1.05-.429.556-.684 1.225-.762 2.001l5.363.003zM39.163 8.784c-.716 0-1.336-.035-1.851-.094V.92c.721-.112 1.45-.167 2.18-.164 2.954 0 4.314 1.452 4.314 3.82 0 2.733-1.607 4.208-4.643 4.208zm.433-7.032a5.17 5.17 0 0 0-1.02.082v5.907c.152.024.445.035.856.035 1.935 0 3.037-1.102 3.037-3.164 0-1.84-.997-2.86-2.873-2.86zm8.449 7.092c-1.665 0-2.744-1.243-2.744-2.93 0-1.759 1.102-3.012 2.838-3.012 1.64 0 2.743 1.183 2.743 2.919 0 1.78-1.136 3.023-2.837 3.023zm.048-5.017c-.914 0-1.5.855-1.5 2.05 0 1.173.598 2.028 1.488 2.028s1.488-.914 1.488-2.052c0-1.16-.586-2.026-1.476-2.026zm12.282-.808-1.782 5.695h-1.16l-.739-2.473a18.757 18.757 0 0 1-.458-1.84h-.024c-.093.621-.27 1.243-.456 1.84l-.785 2.473h-1.173L52.12 3.02h1.3l.646 2.707c.152.645.28 1.254.386 1.829h.025c.093-.48.245-1.079.468-1.816l.81-2.719h1.031l.775 2.66c.187.645.34 1.278.458 1.876h.033c.083-.586.212-1.208.387-1.875l.692-2.661 1.243-.001zm6.56 5.695h-1.266v-3.27c0-1.007-.387-1.512-1.15-1.512-.75 0-1.265.645-1.265 1.395v3.387h-1.266V4.647c0-.504-.012-1.044-.047-1.63h1.114l.059.88h.035c.34-.609 1.031-.995 1.806-.995 1.196 0 1.981.914 1.981 2.402l-.001 3.41zm3.491 0h-1.267V.405h1.267v8.31zm4.616.13c-1.664 0-2.744-1.243-2.744-2.93 0-1.759 1.102-3.012 2.837-3.012 1.642 0 2.743 1.183 2.743 2.919.001 1.78-1.136 3.023-2.836 3.023zm.047-5.017c-.915 0-1.5.855-1.5 2.05 0 1.173.599 2.028 1.487 2.028.891 0 1.488-.914 1.488-2.052.001-1.16-.583-2.026-1.475-2.026zm7.78 4.887-.091-.655h-.034c-.386.527-.95.785-1.666.785-1.02 0-1.745-.715-1.745-1.677 0-1.406 1.219-2.133 3.33-2.133V4.93c0-.75-.398-1.125-1.184-1.125a2.67 2.67 0 0 0-1.488.422l-.257-.832c.526-.328 1.184-.492 1.956-.492 1.488 0 2.24.785 2.24 2.356v2.098c0 .575.025 1.02.081 1.36l-1.141-.002zm-.173-2.837c-1.406 0-2.112.341-2.112 1.149 0 .598.364.89.869.89.644 0 1.243-.492 1.243-1.16v-.879zm7.38 2.837-.058-.914h-.035c-.364.69-.975 1.044-1.83 1.044-1.373 0-2.39-1.208-2.39-2.907 0-1.782 1.055-3.037 2.495-3.037.762 0 1.302.258 1.606.775h.026V.405h1.267V7.18c0 .551.013 1.067.047 1.535h-1.127zm-.186-3.351c0-.797-.528-1.477-1.334-1.477-.939 0-1.512.832-1.512 2.003 0 1.149.595 1.935 1.487 1.935.796 0 1.359-.692 1.359-1.512v-.95zm9.302 3.48c-1.664 0-2.743-1.242-2.743-2.93 0-1.758 1.102-3.011 2.837-3.011 1.641 0 2.743 1.183 2.743 2.919.001 1.78-1.135 3.023-2.837 3.023zm.047-5.016c-.914 0-1.5.855-1.5 2.05 0 1.173.598 2.028 1.487 2.028.892 0 1.489-.914 1.489-2.052.002-1.16-.584-2.026-1.476-2.026zm9.599 4.887h-1.268v-3.27c0-1.007-.386-1.512-1.148-1.512-.751 0-1.265.645-1.265 1.395v3.387h-1.267V4.647c0-.504-.013-1.044-.048-1.63h1.114l.059.88h.035c.34-.609 1.032-.997 1.805-.997 1.196 0 1.983.915 1.983 2.403v3.411zm8.517-4.746h-1.392v2.766c0 .704.244 1.055.736 1.055.224 0 .411-.024.562-.059l.035.961c-.245.095-.574.142-.982.142-.998 0-1.595-.551-1.595-1.993V3.968h-.831v-.95h.831V1.976l1.244-.375v1.418h1.392v.95zm6.703 4.746h-1.265V5.468c0-1.02-.386-1.535-1.149-1.535-.656 0-1.267.446-1.267 1.348v3.433h-1.265V.405h1.265v3.422h.025c.399-.621.976-.927 1.713-.927 1.206 0 1.943.938 1.943 2.427v3.387zm6.866-2.543h-3.799c.024 1.078.738 1.687 1.795 1.687.562 0 1.079-.094 1.535-.27l.197.88c-.539.234-1.173.351-1.911.351-1.782 0-2.836-1.125-2.836-2.87 0-1.747 1.08-3.06 2.694-3.06 1.455 0 2.368 1.079 2.368 2.708a2.4 2.4 0 0 1-.043.574zm-1.161-.902c0-.88-.443-1.5-1.253-1.5-.727 0-1.302.633-1.384 1.5h2.637z"/></svg>